<?xml version="1.0" encoding="UTF-8"?>
<!DOCTYPE svg PUBLIC "-//W3C//DTD SVG 1.1//EN" "http://www.w3.org/Graphics/SVG/1.1/DTD/svg11.dtd">
<!-- Creator: CorelDRAW 2019 (64-Bit) -->
<svg xmlns="http://www.w3.org/2000/svg" xml:space="preserve" width="200mm" height="200mm" version="1.1" style="shape-rendering:geometricPrecision; text-rendering:geometricPrecision; image-rendering:optimizeQuality; fill-rule:evenodd; clip-rule:evenodd"
viewBox="0 0 20000 20000"
 xmlns:xlink="http://www.w3.org/1999/xlink"
 xmlns:xodm="http://www.corel.com/coreldraw/odm/2003">
 <defs>
  <style type="text/css">
   <![CDATA[
    .fil2 {fill:#FEFEFE;fill-rule:nonzero}
    .fil1 {fill:url(#id0)}
    .fil0 {fill:url(#id1)}
   ]]>
  </style>
  <linearGradient id="id0" gradientUnits="userSpaceOnUse" x1="5461.23" y1="3806.42" x2="14915.23" y2="15854.24">
   <stop offset="0" style="stop-opacity:1; stop-color:#A5A5A6"/>
   <stop offset="0.121569" style="stop-opacity:1; stop-color:#767676"/>
   <stop offset="0.34902" style="stop-opacity:1; stop-color:#DADADA"/>
   <stop offset="0.588235" style="stop-opacity:1; stop-color:#787879"/>
   <stop offset="0.819608" style="stop-opacity:1; stop-color:#DBDBDB"/>
   <stop offset="1" style="stop-opacity:1; stop-color:#787879"/>
  </linearGradient>
  <linearGradient id="id1" gradientUnits="userSpaceOnUse" xlink:href="#id0" x1="2285.68" y1="7810.61" x2="18433.23" y2="12047.06">
  </linearGradient>
 </defs>
 <g id="Warstwa_x0020_1">
  <metadata id="CorelCorpID_0Corel-Layer"/>
  <g id="_2473943179712">
   <path class="fil0" d="M16153.86 14063.49c879.18,-1264.82 1394.85,-2803.27 1394.85,-4462.64 0,-4311.49 -3481.14,-7806.63 -7775.34,-7806.63 -4294.21,0 -7775.35,3495.14 -7775.35,7806.63 0,4311.49 3481.14,7806.63 7775.35,7806.63 1419.66,0 2750.44,-382.02 3895.96,-1049.22l1753.08 1705.19 3298.48 -1587.5 -2567.03 -2412.46zm-3009.2 -2828.02l-1161.84 -1091.89 -3016.25 1640.42 1746.98 1699.24c-301.38,87.48 -612.98,138 -940.17,138.25 -2030.46,1.59 -3676.47,-1779.1 -3676.47,-3973.72 0,-2194.61 1646,-3973.71 3676.47,-3973.71 2030.46,0 3676.47,1779.1 3676.47,3973.71 0,564.46 -108.9,1101.43 -305.19,1587.7z"/>
   <path class="fil1" d="M13774.23 15778.62l1696.7 1649.78 2469.45 -1111.25 -2363.42 -2207.25c961.44,-1246.24 1533.7,-2810.53 1533.7,-4509.05 0,-4069.56 -3285.02,-7368.59 -7337.29,-7368.59 -4052.27,0 -7337.29,3299.03 -7337.29,7368.59 0,4069.55 3285.02,7368.58 7337.29,7368.58 1475.96,0 2850.14,-437.67 4000.86,-1190.81zm-485.09 -3805.36l-328.87 -307.13 -1025.95 -958.16 -2204.86 1137.71 1502.61 1461.06 340.54 331.13c-153.96,80.81 -313.22,151.76 -477.08,212.04 -424.45,156.17 -879.75,240.93 -1353.45,240.93 -2306.94,0 -4177.09,-2010.24 -4177.09,-4489.99 0,-2479.75 1870.15,-4489.99 4177.09,-4489.99 2306.95,0 4177.1,2010.24 4177.1,4489.99 0,870.98 -230.72,1684.04 -630.04,2372.41z"/>
  </g>
  <path class="fil2" d="M11383.82 12843.88l-238.95 -235.98 963.05 -1065.64 -1202.01 829.65 -226.72 -223.91 1462.65 -969.52 358.43 353.97 -792.05 877.13 1213.93 -460.5 361.57 357.07 -1429.66 1002.12 -227.86 -225.02 1213.75 -804 -1456.13 564.63zm1269.06 305.89c71.35,-72.26 157.46,-137.82 258.3,-196.7 134.64,-79.43 269.74,-129.74 405.88,-151.51 136.13,-21.78 271.05,-11.6 404.75,29.4 133.7,41.57 256.88,117.71 369.81,229.24 151.34,149.45 227.02,316.92 227.06,502.94 0.03,186.02 -76.37,356.7 -229.76,512.03 -127.54,129.14 -281.02,224.25 -460.74,285.02 -179.99,61.07 -354.35,72.62 -522.53,35.22 -168.17,-37.39 -317.68,-120.99 -449.11,-250.79 -113.79,-112.37 -183.8,-232.65 -210.04,-360.84 -25.96,-127.91 -17.66,-246.14 25.78,-354.41 43.42,-108.27 103.61,-201.66 180.6,-279.6zm253.97 241.26c-83.16,84.21 -127.23,180.05 -132.21,286.94 -4.98,107.46 34.06,202.21 117.41,284.53 67.7,66.85 155.04,108.73 261.45,125.59 106.97,16.86 225.6,-0.29 356.47,-50.86 130.85,-51.15 238.71,-119.38 324.11,-205.87 95.25,-96.43 144.08,-197.68 146.82,-303.42 2.45,-106.04 -36.31,-198.24 -116.24,-277.18 -122.6,-121.09 -279.2,-162.23 -469.52,-123.73 -190.3,39.07 -352.88,126.89 -488.29,264zm1053.17 1997.04l-251.19 -248.08 1217.7 -806.85 -358.72 -354.26 243.24 -164.37 962.66 950.69 -243.25 164.36 -352.74 -348.35 -1217.7 806.86zm1032.37 72.12c71.36,-72.25 157.46,-137.81 258.3,-196.68 134.63,-79.43 269.74,-129.76 405.88,-151.53 136.13,-21.76 271.06,-11.59 404.75,29.42 133.7,41.57 256.88,117.7 369.81,229.23 151.33,149.46 227.02,316.92 227.06,502.94 0.03,186.03 -76.36,356.71 -229.76,512.03 -127.54,129.14 -281.03,224.25 -460.74,285.03 -179.99,61.06 -354.35,72.61 -522.52,35.21 -168.17,-37.39 -317.68,-120.99 -449.12,-250.78 -113.78,-112.38 -183.8,-232.67 -210.05,-360.85 -25.95,-127.91 -17.64,-246.14 25.78,-354.41 43.43,-108.26 103.63,-201.66 180.61,-279.61zm253.97 241.28c-83.16,84.2 -127.23,180.03 -132.21,286.93 -4.98,107.47 34.06,202.21 117.41,284.53 67.7,66.86 155.03,108.72 261.44,125.58 106.97,16.87 225.61,-0.28 356.48,-50.85 130.86,-51.14 238.71,-119.39 324.11,-205.86 95.24,-96.44 144.08,-197.68 146.83,-303.43 2.43,-106.04 -36.32,-198.24 -116.25,-277.18 -122.6,-121.08 -279.21,-162.24 -469.52,-123.72 -190.3,39.07 -352.89,126.88 -488.29,264z"/>
 </g>
</svg>
